<svg width="218" height="232" viewBox="0 0 218 232" fill="none" xmlns="http://www.w3.org/2000/svg">
<path d="M99.9438 7.48974C90.0197 9.20231 81.0062 12.0311 72.1335 16.2198C52.9498 25.2908 36.6858 40.2032 25.8634 58.6788C18.1335 71.8544 13.2098 86.8269 11.6997 101.708C10.2036 116.361 11.6503 131.023 15.9349 144.927C17.9442 151.433 20.3735 157.289 23.5609 163.328C34.5397 184.11 52.0531 200.733 73.2872 210.533C89.3683 217.955 106.3 221.156 124.093 220.135C126.928 219.97 134.771 219.012 137.334 218.521C151.426 215.802 163.843 210.835 175.489 203.262C192.237 192.363 161.327 207.482 144.108 210.844C139.957 211.65 132.361 212.441 127.817 212.539C104.642 213.018 82.273 205.501 64.0711 191.1C45.3217 176.286 32.56 155.484 27.8679 132.127C26.7314 126.484 26.0234 120.091 25.8977 114.336C25.5217 97.5257 29.3467 80.9827 37.0685 66.0466C45.8179 49.1068 59.3089 34.9172 75.6631 25.4373C86.1282 19.3702 97.3044 15.3717 109.466 13.3421C112.21 12.8898 119.489 12.1629 122.098 12.0917C136.977 11.6807 151.011 14.3022 164.353 19.9988C178.799 26.1568 158.488 12.6133 141.452 8.74093C139.111 8.20861 138.788 8.13555 136.569 7.72822C129.278 6.38842 121.858 5.84453 113.807 6.08306C111.552 6.1449 102.241 7.08694 99.9438 7.48974Z" fill="#001AFF"/>
<path d="M102.361 32.7911C102.361 32.7911 104.094 35.4985 104.7 36.3169C108.776 41.772 113.69 45.5069 118.678 46.9243C119.698 47.2108 121.492 47.5506 122.318 47.6021L122.858 47.6299L122.378 48.0685C120.783 49.5024 118.592 52.183 117.42 54.138C115.432 57.4544 114.062 61.5045 113.664 65.1997C113.301 68.6088 113.604 72.2456 114.546 75.8973C115.203 78.4458 115.709 79.7944 117.131 82.8726L118.432 85.6701L117.866 86.5541C114.676 91.4686 111.862 98.1074 110.517 103.877C108.706 111.62 109.009 118.968 111.391 125.398C111.62 125.999 113.292 129.769 115.108 133.776C116.923 137.783 118.877 142.153 119.452 143.492C122.21 149.981 124.11 149.745 124.516 152.996C124.685 154.233 131.085 165.692 130.938 165.761C130.903 165.777 130.869 171.623 130.701 171.264C130.308 170.425 121.791 159.745 120.801 158.376C115.787 151.437 109.186 143.435 101.726 140.433C100.801 140.057 98.8685 139.377 97.4292 138.916C93.5736 137.687 90.9282 136.723 87.0078 135.132C79.5171 132.087 73.7122 128.972 68.5339 125.192C66.8654 123.973 63.7403 121.356 62.4392 120.065C54.473 112.205 50.5181 103.005 50.5354 92.313C50.5268 91.035 54.391 101.571 57.6933 106.996C63.7058 116.896 72.5926 124.313 84.1378 129.077C88.0322 130.681 106.074 137.112 110.958 138.646C111.464 138.802 112.017 138.97 112.177 139.019L112.475 139.115L112.277 138.871C111.745 138.187 110.401 135.904 109.588 134.284C106.009 127.212 104.341 119.088 104.872 111.337C105.123 107.531 105.715 104.565 106.99 100.628C108.175 96.9908 109.571 93.8732 111.455 90.6729C112.29 89.2584 114.218 86.2853 114.347 86.2245C114.373 86.2123 114.2 85.8211 113.954 85.3631C113.712 84.9142 113.206 83.7681 112.83 82.831C109.091 73.4167 108.715 64.3375 111.771 56.9105C112.661 54.7386 114.083 52.2837 115.367 50.681C115.648 50.3355 115.886 50.0329 115.895 50.0064C115.903 49.9798 115.454 49.7632 114.896 49.5186C111.559 48.0692 108.019 45.7141 105.875 43.5254C104.98 42.6067 104.017 41.2929 103.61 40.4263C103.256 39.6703 96.3806 44.7632 90.607 61.477C84.2209 79.9642 88.89 82.6239 79.4596 89.5635C66.4464 99.1395 46.7101 89.417 44.3155 93.8911L43.7233 94.9896L43.8789 96.1537C44.35 99.6103 45.6338 104.35 47.1855 108.357C47.9808 110.391 50.2758 124.378 56.122 132.595C61.8723 140.676 59.6778 138.301 69.7557 147.218C82.5671 158.553 92.123 172.018 86.7408 155.393C79.4379 132.836 84.8507 152.197 78.1406 167.41C71.6293 182.172 75.0355 177.273 61.5799 186.922C60.8801 187.424 75.7938 192.598 89.8424 196.812C99.9294 199.838 132 199.167 138.44 187.061C141.002 182.245 145.18 170.96 139.592 160.956C132.738 148.685 123.96 143.931 121.786 139.023C119.837 134.618 118.726 131.956 117.757 129.419C114.274 120.188 113.163 113.163 114.144 106.507C114.425 104.587 114.814 103.032 115.506 100.976C116.802 97.1292 118.652 93.6977 121.557 89.7267C122.214 88.8339 122.754 88.0744 122.767 88.0571C122.776 88.0305 122.404 87.3952 121.942 86.6336C120.792 84.7435 118.816 80.5527 118.255 78.7694C116.703 73.9076 116.608 70.0836 117.987 67.0642C118.216 66.5632 118.575 65.9114 118.782 65.6116L119.167 65.0602L118.976 66.5889C118.587 69.6728 121.016 78.9709 119.569 76.3539C111.669 62.0696 124.171 86.3499 129.597 90.0958C131.308 91.2772 132.41 91.7792 134.213 92.4523C137.688 93.7694 140.926 93.9271 145.127 92.9918C149.462 92.0275 150.655 91.9405 152.06 92.4627C153.245 92.8971 155.051 94.2093 160.839 98.8392C165.088 102.234 166.666 103.395 168.939 104.825C172.777 107.232 174.113 107.719 176.045 107.409C176.849 107.28 178.371 106.566 179.499 105.801C179.961 105.483 180.912 104.88 181.608 104.452C182.304 104.025 183.143 103.474 183.463 103.234C184.176 102.686 185.092 101.514 185.602 100.488C186.138 99.4044 188.092 93.3601 188.204 92.4302C188.442 90.4632 187.854 89.0294 186.06 87.2051C185.719 86.8591 183.415 84.8692 180.938 82.7803C174.627 77.462 171.887 74.9907 169.073 72.1153C165.231 68.1927 163.342 65.8057 159.91 60.5322C157.359 56.5997 156.309 55.0117 155.19 53.411C149.203 44.8032 145.748 33.0982 139.209 30.4627C136.49 29.3645 136.906 25.295 126.963 26.1333C115.518 27.0982 109.294 34.7136 104.237 33.3061C103.511 33.1067 102.793 32.9033 102.638 32.8639L102.361 32.7911ZM140.07 63.7165C141.946 64.299 143.675 64.7029 146.082 65.1373C148.33 65.5454 149.51 65.9256 150.495 66.5656C151.455 67.1953 152.004 67.7814 152.402 68.6071C152.691 69.2023 152.726 69.366 152.7 69.8505C152.609 71.1639 151.667 71.9206 149.739 72.2172C148.36 72.425 146.363 72.2143 144.98 71.7157C142.694 70.8872 140.463 68.4242 138.432 64.4734L137.667 62.9765L138.172 63.1329C138.453 63.2149 139.305 63.4792 140.07 63.7165Z" fill="#001AFF"/>
</svg>
